<svg xmlns="http://www.w3.org/2000/svg" width="178" height="24" viewBox="0 0 178 24" fill="none">
  <path d="M177.169 9.82171C177.239 10.3146 177.274 10.9306 177.274 11.6699V12.5148C177.274 12.6908 177.186 12.7788 177.01 12.7788H168.482C168.412 12.7788 168.377 12.814 168.377 12.8844C168.412 13.8526 168.465 14.4774 168.535 14.759C168.729 15.5511 169.142 16.176 169.776 16.6337C170.41 17.0913 171.219 17.3201 172.205 17.3201C172.944 17.3201 173.595 17.1529 174.159 16.8185C174.722 16.484 175.162 16.0088 175.479 15.3927C175.585 15.2343 175.708 15.1991 175.849 15.2871L176.878 15.8944C177.019 15.9824 177.054 16.1056 176.984 16.264C176.544 17.1089 175.884 17.7778 175.004 18.2706C174.124 18.7459 173.111 18.9835 171.967 18.9835C170.718 18.9659 169.67 18.6667 168.825 18.0858C167.98 17.5049 167.373 16.6953 167.004 15.6567C166.687 14.8119 166.528 13.5973 166.528 12.0131C166.528 11.2739 166.537 10.6754 166.555 10.2178C166.59 9.7425 166.66 9.32006 166.766 8.95042C167.065 7.80629 167.664 6.89099 168.561 6.20452C169.477 5.51804 170.577 5.1748 171.862 5.1748C173.463 5.1748 174.696 5.57965 175.558 6.38934C176.421 7.19902 176.957 8.34315 177.169 9.82171ZM171.862 6.81178C170.999 6.81178 170.278 7.04061 169.697 7.49826C169.133 7.9383 168.764 8.53677 168.588 9.29365C168.482 9.66329 168.412 10.2618 168.377 11.089C168.377 11.1595 168.412 11.1947 168.482 11.1947H175.32C175.391 11.1947 175.426 11.1595 175.426 11.089C175.391 10.297 175.338 9.7337 175.268 9.39927C175.074 8.60718 174.678 7.98231 174.08 7.52466C173.499 7.04941 172.759 6.81178 171.862 6.81178Z" fill="#161D25"/>
  <path d="M159.031 18.7456C158.872 18.7456 158.767 18.6752 158.714 18.5344L154.384 5.67617L154.357 5.57056C154.357 5.44735 154.437 5.38574 154.595 5.38574H156.1C156.258 5.38574 156.364 5.45615 156.417 5.59697L159.717 15.9469C159.735 15.9821 159.761 15.9997 159.796 15.9997C159.832 15.9997 159.858 15.9821 159.876 15.9469L163.176 5.59697C163.229 5.45615 163.334 5.38574 163.493 5.38574L164.998 5.41215C165.191 5.41215 165.262 5.50896 165.209 5.70258L160.879 18.5344C160.826 18.6752 160.721 18.7456 160.562 18.7456H159.031Z" fill="#161D25"/>
  <path d="M150.953 2.95712C150.531 2.95712 150.179 2.81631 149.897 2.53468C149.615 2.25305 149.475 1.90101 149.475 1.47856C149.475 1.03851 149.615 0.686475 149.897 0.422447C150.179 0.140815 150.531 0 150.953 0C151.376 0 151.728 0.140815 152.009 0.422447C152.291 0.686475 152.432 1.03851 152.432 1.47856C152.432 1.90101 152.291 2.25305 152.009 2.53468C151.728 2.81631 151.376 2.95712 150.953 2.95712ZM150.214 18.7196C150.038 18.7196 149.95 18.6316 149.95 18.4556V5.62381C149.95 5.44779 150.038 5.35978 150.214 5.35978H151.56C151.736 5.35978 151.824 5.44779 151.824 5.62381V18.4556C151.824 18.6316 151.736 18.7196 151.56 18.7196H150.214Z" fill="#161D25"/>
  <path d="M144.658 18.7457C144.482 18.7457 144.394 18.6577 144.394 18.4817V0.527701C144.394 0.351682 144.482 0.263672 144.658 0.263672H146.004C146.18 0.263672 146.268 0.351682 146.268 0.527701V18.4817C146.268 18.6577 146.18 18.7457 146.004 18.7457H144.658Z" fill="#161D25"/>
  <path d="M131.528 24C131.476 24 131.432 23.9648 131.396 23.8944C131.361 23.8416 131.344 23.7712 131.344 23.6832V21.7821C131.344 21.6941 131.37 21.6149 131.423 21.5445C131.493 21.4917 131.572 21.4653 131.66 21.4653H131.687C132.409 21.4477 132.972 21.3685 133.377 21.2277C133.781 21.1045 134.116 20.858 134.38 20.4884C134.644 20.1188 134.882 19.5643 135.093 18.825C135.11 18.7898 135.11 18.737 135.093 18.6666L130.736 5.59718C130.719 5.56198 130.71 5.51797 130.71 5.46517C130.71 5.30675 130.798 5.22754 130.974 5.22754H133.561C133.755 5.22754 133.878 5.31555 133.931 5.49157L136.571 14.7854C136.589 14.8382 136.615 14.8646 136.651 14.8646C136.686 14.8646 136.712 14.8382 136.73 14.7854L139.37 5.49157C139.423 5.31555 139.546 5.22754 139.74 5.22754H142.248C142.354 5.22754 142.424 5.26274 142.459 5.33315C142.512 5.38596 142.521 5.47397 142.486 5.59718L137.839 19.4851C137.399 20.7348 136.967 21.6677 136.545 22.2838C136.123 22.8999 135.542 23.3399 134.802 23.6039C134.081 23.868 133.051 24 131.713 24H131.528Z" fill="#161D25"/>
  <path d="M124.222 5.04199C125.331 5.04199 126.308 5.23561 127.153 5.62286C127.998 6.0101 128.649 6.54696 129.106 7.23343C129.564 7.9023 129.793 8.66799 129.793 9.53048V18.4283C129.793 18.5163 129.758 18.5955 129.687 18.6659C129.634 18.7187 129.564 18.7451 129.476 18.7451H127.047C126.959 18.7451 126.88 18.7187 126.809 18.6659C126.757 18.5955 126.73 18.5163 126.73 18.4283V17.5834C126.73 17.5306 126.713 17.5042 126.677 17.5042C126.642 17.4866 126.607 17.4954 126.572 17.5306C125.709 18.4811 124.46 18.9563 122.823 18.9563C121.502 18.9563 120.411 18.6219 119.549 17.953C118.704 17.2841 118.281 16.2896 118.281 14.9695C118.281 13.5965 118.757 12.5316 119.707 11.7747C120.675 11.0002 122.03 10.613 123.773 10.613H126.598C126.686 10.613 126.73 10.569 126.73 10.481V9.84732C126.73 9.16084 126.528 8.63278 126.123 8.26314C125.718 7.8759 125.111 7.68228 124.301 7.68228C123.632 7.68228 123.087 7.80549 122.664 8.05192C122.259 8.28075 122.004 8.60638 121.898 9.02883C121.846 9.24005 121.722 9.32806 121.529 9.29286L118.968 8.97602C118.88 8.95842 118.801 8.93202 118.73 8.89681C118.677 8.84401 118.66 8.7824 118.677 8.71199C118.818 7.63828 119.39 6.75818 120.393 6.07171C121.414 5.38523 122.691 5.04199 124.222 5.04199ZM123.588 16.5272C124.451 16.5272 125.19 16.2984 125.806 15.8408C126.422 15.3831 126.73 14.8023 126.73 14.0982V12.8572C126.73 12.7692 126.686 12.7252 126.598 12.7252H124.38C123.447 12.7252 122.708 12.9012 122.162 13.2533C121.634 13.6053 121.37 14.107 121.37 14.7583C121.37 15.3215 121.573 15.7616 121.978 16.0784C122.4 16.3776 122.937 16.5272 123.588 16.5272Z" fill="#161D25"/>
  <path d="M113.486 0.580507C113.486 0.492498 113.513 0.42209 113.566 0.369283C113.636 0.298876 113.715 0.263672 113.803 0.263672H116.232C116.32 0.263672 116.391 0.298876 116.444 0.369283C116.514 0.42209 116.549 0.492498 116.549 0.580507V18.4289C116.549 18.5169 116.514 18.5961 116.444 18.6665C116.391 18.7193 116.32 18.7457 116.232 18.7457H113.803C113.715 18.7457 113.636 18.7193 113.566 18.6665C113.513 18.5961 113.486 18.5169 113.486 18.4289V17.6368C113.486 17.584 113.469 17.5488 113.434 17.5312C113.398 17.5136 113.363 17.5312 113.328 17.584C112.553 18.4993 111.541 18.9569 110.292 18.9569C109.042 18.9569 107.986 18.6313 107.123 17.98C106.261 17.3287 105.636 16.4222 105.249 15.2605C104.932 14.2748 104.773 13.1747 104.773 11.9601C104.773 10.7104 104.923 9.63669 105.222 8.73899C105.61 7.57727 106.234 6.67077 107.097 6.0195C107.959 5.36823 109.042 5.04259 110.344 5.04259C111.559 5.04259 112.553 5.48264 113.328 6.36274C113.363 6.39794 113.398 6.41554 113.434 6.41554C113.469 6.39794 113.486 6.36274 113.486 6.30993V0.580507ZM112.853 15.0493C113.258 14.3276 113.46 13.3067 113.46 11.9865C113.46 10.6136 113.24 9.56629 112.8 8.84461C112.325 8.07012 111.656 7.68288 110.793 7.68288C109.896 7.68288 109.192 8.05252 108.681 8.7918C108.153 9.56629 107.889 10.64 107.889 12.013C107.889 13.2451 108.1 14.2572 108.523 15.0493C109.015 15.8942 109.764 16.3166 110.767 16.3166C111.665 16.3166 112.36 15.8942 112.853 15.0493Z" fill="#161D25"/>
  <path d="M98.1191 5.04259C99.5449 5.04259 100.68 5.46504 101.525 6.30993C102.388 7.15482 102.819 8.30775 102.819 9.76871V18.4289C102.819 18.5169 102.784 18.5961 102.713 18.6665C102.66 18.7193 102.59 18.7457 102.502 18.7457H100.073C99.9849 18.7457 99.9057 18.7193 99.8353 18.6665C99.7825 18.5961 99.7561 18.5169 99.7561 18.4289V10.4024C99.7561 9.59269 99.5272 8.94142 99.0696 8.44857C98.6119 7.93811 98.0047 7.68288 97.2478 7.68288C96.4909 7.68288 95.8748 7.92931 95.3996 8.42216C94.9419 8.91502 94.7131 9.56629 94.7131 10.376V18.4289C94.7131 18.5169 94.6779 18.5961 94.6075 18.6665C94.5547 18.7193 94.4843 18.7457 94.3963 18.7457H91.9672C91.8792 18.7457 91.8 18.7193 91.7296 18.6665C91.6768 18.5961 91.6504 18.5169 91.6504 18.4289V0.580507C91.6504 0.492498 91.6768 0.42209 91.7296 0.369283C91.8 0.298876 91.8792 0.263672 91.9672 0.263672H94.3963C94.4843 0.263672 94.5547 0.298876 94.6075 0.369283C94.6779 0.42209 94.7131 0.492498 94.7131 0.580507V6.41554C94.7131 6.46835 94.7307 6.50355 94.7659 6.52115C94.8011 6.53876 94.8275 6.52115 94.8451 6.46835C95.5668 5.51784 96.6581 5.04259 98.1191 5.04259Z" fill="#161D25"/>
  <path d="M84.0403 18.9563C82.685 18.9563 81.5145 18.6131 80.5287 17.9266C79.543 17.2225 78.8566 16.2808 78.4693 15.1015C78.1877 14.3094 78.0469 13.2533 78.0469 11.9331C78.0469 10.6658 78.1877 9.62729 78.4693 8.8176C78.839 7.65588 79.5166 6.74058 80.5023 6.07171C81.5057 5.38523 82.685 5.04199 84.0403 5.04199C85.4133 5.04199 86.6102 5.38523 87.6311 6.07171C88.652 6.75818 89.3297 7.62067 89.6641 8.65919C89.7522 8.94082 89.8138 9.22245 89.849 9.50408V9.55689C89.849 9.7329 89.7521 9.83852 89.5585 9.87372L87.1823 10.217H87.1295C86.971 10.217 86.8654 10.1289 86.8126 9.95293C86.8126 9.86492 86.8038 9.79451 86.7862 9.74171C86.751 9.60089 86.7158 9.47768 86.6806 9.37207C86.5222 8.87921 86.2054 8.47437 85.7301 8.15753C85.2549 7.8407 84.6916 7.68228 84.0403 7.68228C83.3715 7.68228 82.7994 7.8583 82.3241 8.21034C81.8665 8.54477 81.5585 9.01122 81.4 9.60969C81.224 10.173 81.136 10.9562 81.136 11.9595C81.136 12.9277 81.2152 13.7109 81.3736 14.3094C81.5497 14.9255 81.8665 15.4183 82.3241 15.788C82.7818 16.14 83.3539 16.316 84.0403 16.316C84.7092 16.316 85.2813 16.1488 85.7565 15.8144C86.2494 15.4623 86.5662 14.9959 86.707 14.415C86.7246 14.3798 86.7334 14.3358 86.7334 14.283C86.751 14.2654 86.7598 14.239 86.7598 14.2038C86.8126 13.9926 86.9358 13.9046 87.1295 13.9398L89.5057 14.3094C89.5937 14.327 89.6641 14.371 89.7169 14.4414C89.7874 14.4942 89.8138 14.5734 89.7962 14.679C89.7434 14.9607 89.6993 15.1631 89.6641 15.2863C89.3297 16.4128 88.652 17.3105 87.6311 17.9794C86.6102 18.6307 85.4133 18.9563 84.0403 18.9563Z" fill="#161D25"/>
  <path d="M76.7462 7.41884C76.7462 7.50685 76.711 7.58606 76.6406 7.65647C76.5878 7.70927 76.5174 7.73568 76.4294 7.73568H73.7363C73.6483 7.73568 73.6043 7.77968 73.6043 7.86769V14.2308C73.6043 14.8997 73.7451 15.3837 74.0267 15.6829C74.3259 15.9822 74.7924 16.1318 75.4261 16.1318H76.2181C76.3062 16.1318 76.3766 16.167 76.4294 16.2374C76.4998 16.2902 76.535 16.3606 76.535 16.4486V18.4288C76.535 18.6225 76.4294 18.7369 76.2181 18.7721L74.8452 18.7985C73.4546 18.7985 72.4161 18.5609 71.7297 18.0856C71.0432 17.6104 70.6911 16.7127 70.6735 15.3925V7.86769C70.6735 7.77968 70.6295 7.73568 70.5415 7.73568H69.0366C68.9486 7.73568 68.8693 7.70927 68.7989 7.65647C68.7461 7.58606 68.7197 7.50685 68.7197 7.41884V5.57064C68.7197 5.48263 68.7461 5.41222 68.7989 5.35942C68.8693 5.28901 68.9486 5.25381 69.0366 5.25381H70.5415C70.6295 5.25381 70.6735 5.2098 70.6735 5.12179V2.03266C70.6735 1.94465 70.6999 1.87424 70.7527 1.82143C70.8232 1.75102 70.9024 1.71582 70.9904 1.71582H73.2874C73.3754 1.71582 73.4458 1.75102 73.4986 1.82143C73.5691 1.87424 73.6043 1.94465 73.6043 2.03266V5.12179C73.6043 5.2098 73.6483 5.25381 73.7363 5.25381H76.4294C76.5174 5.25381 76.5878 5.28901 76.6406 5.35942C76.711 5.41222 76.7462 5.48263 76.7462 5.57064V7.41884Z" fill="#161D25"/>
  <path d="M61.9436 5.04199C63.0525 5.04199 64.0294 5.23561 64.8743 5.62286C65.7192 6.0101 66.3705 6.54696 66.8281 7.23343C67.2858 7.9023 67.5146 8.66799 67.5146 9.53048V18.4283C67.5146 18.5163 67.4794 18.5955 67.409 18.6659C67.3562 18.7187 67.2858 18.7451 67.1977 18.7451H64.7687C64.6807 18.7451 64.6015 18.7187 64.5311 18.6659C64.4783 18.5955 64.4518 18.5163 64.4518 18.4283V17.5834C64.4518 17.5306 64.4342 17.5042 64.399 17.5042C64.3638 17.4866 64.3286 17.4954 64.2934 17.5306C63.4309 18.4811 62.1812 18.9563 60.5442 18.9563C59.2241 18.9563 58.1328 18.6219 57.2703 17.953C56.4254 17.2841 56.0029 16.2896 56.0029 14.9695C56.0029 13.5965 56.4782 12.5316 57.4287 11.7747C58.3968 11.0002 59.7521 10.613 61.4947 10.613H64.3198C64.4078 10.613 64.4518 10.569 64.4518 10.481V9.84732C64.4518 9.16084 64.2494 8.63278 63.8446 8.26314C63.4397 7.8759 62.8325 7.68228 62.0228 7.68228C61.3539 7.68228 60.8083 7.80549 60.3858 8.05192C59.981 8.28075 59.7257 8.60638 59.6201 9.02883C59.5673 9.24005 59.4441 9.32806 59.2505 9.29286L56.6894 8.97602C56.6014 8.95842 56.5222 8.93202 56.4518 8.89681C56.399 8.84401 56.3814 8.7824 56.399 8.71199C56.5398 7.63828 57.1118 6.75818 58.1152 6.07171C59.1361 5.38523 60.4122 5.04199 61.9436 5.04199ZM61.3099 16.5272C62.1724 16.5272 62.9117 16.2984 63.5277 15.8408C64.1438 15.3831 64.4518 14.8023 64.4518 14.0982V12.8572C64.4518 12.7692 64.4078 12.7252 64.3198 12.7252H62.102C61.1691 12.7252 60.4298 12.9012 59.8842 13.2533C59.3561 13.6053 59.0921 14.107 59.0921 14.7583C59.0921 15.3215 59.2945 15.7616 59.6993 16.0784C60.1218 16.3776 60.6586 16.5272 61.3099 16.5272Z" fill="#161D25"/>
  <path d="M50.1387 5.04199C51.494 5.04199 52.5501 5.45564 53.307 6.28293C54.0815 7.09262 54.4687 8.22794 54.4687 9.6889V18.4283C54.4687 18.5163 54.4335 18.5955 54.3631 18.6659C54.3103 18.7187 54.2399 18.7451 54.1519 18.7451H51.7492C51.6612 18.7451 51.582 18.7187 51.5116 18.6659C51.4588 18.5955 51.4324 18.5163 51.4324 18.4283V10.3226C51.4324 9.51288 51.2124 8.87041 50.7723 8.39516C50.3499 7.91991 49.7778 7.68228 49.0561 7.68228C48.3345 7.68228 47.7448 7.91991 47.2872 8.39516C46.8295 8.87041 46.6007 9.50408 46.6007 10.2962V18.4283C46.6007 18.5163 46.5655 18.5955 46.4951 18.6659C46.4423 18.7187 46.3719 18.7451 46.2838 18.7451H43.8812C43.7932 18.7451 43.714 18.7187 43.6436 18.6659C43.5907 18.5955 43.5643 18.5163 43.5643 18.4283V10.3226C43.5643 9.51288 43.3443 8.87041 42.9043 8.39516C42.4642 7.91991 41.8834 7.68228 41.1617 7.68228C40.4928 7.68228 39.9384 7.8759 39.4983 8.26314C39.0759 8.65039 38.8294 9.17844 38.759 9.84732V18.4283C38.759 18.5163 38.7238 18.5955 38.6534 18.6659C38.6006 18.7187 38.5302 18.7451 38.4422 18.7451H36.0131C35.9251 18.7451 35.8459 18.7187 35.7755 18.6659C35.7227 18.5955 35.6963 18.5163 35.6963 18.4283V5.57005C35.6963 5.48204 35.7227 5.41163 35.7755 5.35883C35.8459 5.28842 35.9251 5.25322 36.0131 5.25322H38.4422C38.5302 5.25322 38.6006 5.28842 38.6534 5.35883C38.7238 5.41163 38.759 5.48204 38.759 5.57005V6.44135C38.759 6.49415 38.7766 6.52936 38.8118 6.54696C38.847 6.56456 38.8822 6.54696 38.9174 6.49415C39.3047 6.0013 39.7799 5.64046 40.3432 5.41163C40.9241 5.16521 41.5665 5.04199 42.2706 5.04199C43.1331 5.04199 43.89 5.21801 44.5413 5.57005C45.1925 5.92209 45.6942 6.43254 46.0462 7.10142C46.099 7.17183 46.1606 7.17183 46.231 7.10142C46.6183 6.39734 47.1551 5.87808 47.8416 5.54365C48.5281 5.20921 49.2938 5.04199 50.1387 5.04199Z" fill="#161D25"/>
  <ellipse cx="19.4625" cy="11.9323" rx="9.73109" ry="9.73109" fill="#FF633D"/>
  <path d="M16.0528 9.38106C18.0032 10.5149 18.0032 13.3496 16.0528 14.4835L4.38828 21.2643C2.43778 22.3981 -0.000334607 20.9808 -0.000334508 18.7131L-0.000333915 5.15143C-0.000333816 2.8837 2.43778 1.46637 4.38828 2.60024L16.0528 9.38106Z" fill="#1743D7"/>
  <path fill-rule="evenodd" clip-rule="evenodd" d="M11.3072 17.243C10.3107 15.7159 9.73145 13.8916 9.73145 11.932C9.73145 9.97288 10.3104 8.14899 11.3065 6.62207L16.0534 9.38158C18.0039 10.5154 18.0039 13.3501 16.0534 14.484L11.3072 17.243Z" fill="#161D25"/>
</svg>